<svg id="Layer_1" data-name="Layer 1" xmlns="http://www.w3.org/2000/svg" viewBox="0 0 564.31 564.31"><defs><style>.cls-1{fill:#011f44;}.cls-2{fill:#6d6e70;}</style></defs><path class="cls-1" d="M468.94,268.23V318.9l-72.54.1.22-40.21-78.31-74.87s-4.85-4.25-.24-8.85c14.33-14.32,58.66-59.17,64.2-64.7,6.62-6.62,1.6-12.56,1.6-12.56L342.12,75.9S334,65.12,322.05,65.43a18.84,18.84,0,0,0-12.64,5.17s-116.65,114-120.61,118.12a15.72,15.72,0,0,0-4.67,12.11c0,5,5.38,9.18,5.38,9.18L266.61,283l-.18,36.78H199.2V280.49c0-12-10.79-12.21-10.79-12.21H81.78c-12.55,0-13.49,7.61-13.49,13.79v60.58h31.88V291.8h68.11V333c0,8.49,11.32,9.68,13.79,9.68H283.58c9.9,0,10.79-7.92,10.79-10.92v-55L215,201.39,317.89,95.71l31.66,29.41s3.18,2.95.57,5.82-62.1,60-62.1,60-3.45,3.45-3.45,7.48,3.45,7.47,3.45,7.47l82.17,77.34v48.59c0,11.31,11.31,10.68,11.31,10.68H485.62c9.2,0,9.86-8.8,9.86-8.8V268.23Z"/><path class="cls-1" d="M455,375.65a12.4,12.4,0,1,1-12.4-12.4,12.4,12.4,0,0,1,12.4,12.4"/><path class="cls-2" d="M80.05,497.7H68.62V397.33H80.94v35.81q7.8-9.79,19.92-9.79a30.52,30.52,0,0,1,12.7,2.7,25.83,25.83,0,0,1,9.86,7.6,36.77,36.77,0,0,1,6.06,11.81,48.72,48.72,0,0,1,2.19,14.79q0,18.69-9.24,28.89t-22.18,10.21q-12.87,0-20.2-10.75Zm-.14-36.9q0,13.08,3.56,18.9,5.82,9.51,15.75,9.51,8.09,0,14-7t5.88-20.92q0-14.24-5.64-21t-13.66-6.78q-8.08,0-14,7T79.91,460.8Z"/><path class="cls-2" d="M192.85,488.73A45.89,45.89,0,0,1,179.68,497a38.11,38.11,0,0,1-13.6,2.4q-12,0-18.41-5.86a19.29,19.29,0,0,1-6.44-15,20.24,20.24,0,0,1,8.8-16.84,29.74,29.74,0,0,1,8.86-4,87.14,87.14,0,0,1,11-1.85q14.93-1.79,22-4.25c0-1.68.06-2.76.06-3.21q0-7.54-3.49-10.61-4.72-4.19-14-4.18-8.7,0-12.84,3t-6.13,10.79l-12.05-1.65a29.93,29.93,0,0,1,5.41-12.49,23.71,23.71,0,0,1,10.89-7.33,48.59,48.59,0,0,1,16.5-2.56q9.3,0,15.13,2.19t8.56,5.51a19.42,19.42,0,0,1,3.83,8.39,69.34,69.34,0,0,1,.62,11.36v16.43q0,17.19.79,21.74a27.27,27.27,0,0,0,3.11,8.73H195.32A26.25,26.25,0,0,1,192.85,488.73Zm-1-27.52q-6.72,2.73-20.13,4.65Q164.1,467,161,468.33a10.67,10.67,0,0,0-4.86,4,10.88,10.88,0,0,0,2,14.08q3.72,3.29,10.91,3.28a25.5,25.5,0,0,0,12.67-3.11,19.16,19.16,0,0,0,8.15-8.53q2-4.17,2-12.32Z"/><path class="cls-2" d="M222.19,497.7V397.33h12.33v57.24L263.68,425h16l-27.8,27,30.61,45.73h-15.2l-24-37.18-8.69,8.36V497.7Z"/><path class="cls-2" d="M291,497.7V397.33h12.33v57.24L332.54,425h15.95l-27.8,27L351.3,497.7H336.1l-24-37.18-8.69,8.36V497.7Z"/><path class="cls-2" d="M407.27,488.73A46.06,46.06,0,0,1,394.09,497a38,38,0,0,1-13.59,2.4q-12,0-18.42-5.86a19.32,19.32,0,0,1-6.43-15,20.26,20.26,0,0,1,8.79-16.84,29.91,29.91,0,0,1,8.87-4,87.24,87.24,0,0,1,10.95-1.85q14.94-1.79,22-4.25c0-1.68.06-2.76.06-3.21q0-7.54-3.49-10.61-4.72-4.19-14-4.18-8.7,0-12.83,3t-6.13,10.79l-12.05-1.65a29.68,29.68,0,0,1,5.41-12.49,23.73,23.73,0,0,1,10.88-7.33,48.63,48.63,0,0,1,16.5-2.56q9.31,0,15.13,2.19t8.56,5.51a19.32,19.32,0,0,1,3.84,8.39,69.68,69.68,0,0,1,.61,11.36v16.43q0,17.19.79,21.74a27.29,27.29,0,0,0,3.12,8.73H409.73A26.25,26.25,0,0,1,407.27,488.73Zm-1-27.52q-6.72,2.73-20.14,4.65-7.59,1.09-10.75,2.47a10.7,10.7,0,0,0-4.85,4,10.88,10.88,0,0,0,2,14.08q3.72,3.29,10.91,3.28a25.5,25.5,0,0,0,12.67-3.11,19.21,19.21,0,0,0,8.15-8.53q2-4.17,2-12.32Z"/><path class="cls-2" d="M436.54,497.7V397.33h12.33v36a27.54,27.54,0,0,1,21.77-10,29.42,29.42,0,0,1,14,3.18,18.69,18.69,0,0,1,8.52,8.8q2.57,5.61,2.56,16.29V497.7H483.45V451.62q0-9.24-4-13.45T468.11,434a20,20,0,0,0-10.31,2.84,16.06,16.06,0,0,0-6.88,7.7q-2.06,4.86-2.05,13.42V497.7Z"/></svg>